<svg width="1920" height="13196" viewBox="0 0 1920 13196" fill="none" xmlns="http://www.w3.org/2000/svg">
<line x1="191.496" y1="7.27709e-08" x2="191.496" y2="13196" stroke="white" stroke-opacity="0.01"/>
<line x1="814.741" y1="7.27709e-08" x2="814.741" y2="13196" stroke="white" stroke-opacity="0.01"/>
<line x1="503.118" y1="7.27709e-08" x2="503.118" y2="13196" stroke="white" stroke-opacity="0.01"/>
<line x1="1126.36" y1="2.19183e-08" x2="1126.36" y2="13196" stroke="white" stroke-opacity="0.01"/>
<line x1="1458.09" y1="2.17428e-08" x2="1458.09" y2="13196" stroke="white" stroke-opacity="0.01"/>
<line x1="1809.92" y1="2.17428e-08" x2="1809.92" y2="13196" stroke="white" stroke-opacity="0.01"/>
<line x1="1910.45" y1="2.17428e-08" x2="1910.45" y2="13196" stroke="white" stroke-opacity="0.01"/>
<line x1="30.6562" y1="7.2182e-08" x2="30.6561" y2="13196" stroke="white" stroke-opacity="0.01"/>
<line x1="653.903" y1="7.27709e-08" x2="653.903" y2="13196" stroke="white" stroke-opacity="0.01"/>
<line x1="965.526" y1="7.27709e-08" x2="965.526" y2="13196" stroke="white" stroke-opacity="0.01"/>
<line x1="1297.25" y1="2.17428e-08" x2="1297.25" y2="13196" stroke="white" stroke-opacity="0.01"/>
<line x1="342.279" y1="7.2182e-08" x2="342.279" y2="13196" stroke="white" stroke-opacity="0.01"/>
<line x1="1649.09" y1="2.17428e-08" x2="1649.09" y2="13196" stroke="white" stroke-opacity="0.01"/>
<line x1="211.6" y1="2.17437e-08" x2="211.599" y2="13196" stroke="white" stroke-opacity="0.01"/>
<line x1="1146.47" y1="2.17428e-08" x2="1146.47" y2="13196" stroke="white" stroke-opacity="0.01"/>
<line x1="1478.2" y1="2.17428e-08" x2="1478.2" y2="13196" stroke="white" stroke-opacity="0.01"/>
<line x1="834.846" y1="7.2182e-08" x2="834.846" y2="13196" stroke="white" stroke-opacity="0.01"/>
<line x1="1830.03" y1="2.17428e-08" x2="1830.03" y2="13196" stroke="white" stroke-opacity="0.01"/>
<line x1="523.223" y1="7.2182e-08" x2="523.222" y2="13196" stroke="white" stroke-opacity="0.01"/>
<line x1="985.631" y1="7.2182e-08" x2="985.631" y2="13196" stroke="white" stroke-opacity="0.01"/>
<line x1="50.7617" y1="7.2182e-08" x2="50.7615" y2="13196" stroke="white" stroke-opacity="0.01"/>
<line x1="1317.36" y1="2.17428e-08" x2="1317.36" y2="13196" stroke="white" stroke-opacity="0.01"/>
<line x1="674.008" y1="7.2182e-08" x2="674.008" y2="13196" stroke="white" stroke-opacity="0.01"/>
<line x1="362.385" y1="7.2182e-08" x2="362.385" y2="13196" stroke="white" stroke-opacity="0.01"/>
<line x1="1166.57" y1="2.17428e-08" x2="1166.57" y2="13196" stroke="white" stroke-opacity="0.01"/>
<line x1="1669.19" y1="2.17428e-08" x2="1669.19" y2="13196" stroke="white" stroke-opacity="0.01"/>
<line x1="1498.3" y1="2.17428e-08" x2="1498.3" y2="13196" stroke="white" stroke-opacity="0.01"/>
<line x1="231.705" y1="7.2182e-08" x2="231.705" y2="13196" stroke="white" stroke-opacity="0.01"/>
<line x1="854.95" y1="7.2182e-08" x2="854.95" y2="13196" stroke="white" stroke-opacity="0.01"/>
<line x1="1005.74" y1="7.2182e-08" x2="1005.74" y2="13196" stroke="white" stroke-opacity="0.01"/>
<line x1="1850.13" y1="2.17428e-08" x2="1850.13" y2="13196" stroke="white" stroke-opacity="0.01"/>
<line x1="543.327" y1="7.2182e-08" x2="543.327" y2="13196" stroke="white" stroke-opacity="0.01"/>
<line x1="1337.46" y1="2.17428e-08" x2="1337.46" y2="13196" stroke="white" stroke-opacity="0.01"/>
<line x1="70.8672" y1="7.27709e-08" x2="70.867" y2="13196" stroke="white" stroke-opacity="0.01"/>
<line x1="1186.68" y1="2.17428e-08" x2="1186.68" y2="13196" stroke="white" stroke-opacity="0.01"/>
<line x1="694.112" y1="7.27709e-08" x2="694.112" y2="13196" stroke="white" stroke-opacity="0.01"/>
<line x1="1206.78" y1="2.17428e-08" x2="1206.78" y2="13196" stroke="white" stroke-opacity="0.01"/>
<line x1="382.488" y1="7.27709e-08" x2="382.488" y2="13196" stroke="white" stroke-opacity="0.01"/>
<line x1="1518.41" y1="2.17428e-08" x2="1518.41" y2="13196" stroke="white" stroke-opacity="0.01"/>
<line x1="1689.3" y1="2.17428e-08" x2="1689.3" y2="13196" stroke="white" stroke-opacity="0.01"/>
<line x1="1025.84" y1="2.17428e-08" x2="1025.84" y2="13196" stroke="white" stroke-opacity="0.01"/>
<line x1="251.809" y1="7.27709e-08" x2="251.808" y2="13196" stroke="white" stroke-opacity="0.01"/>
<line x1="895.159" y1="7.27709e-08" x2="895.159" y2="13196" stroke="white" stroke-opacity="0.01"/>
<line x1="875.055" y1="7.27709e-08" x2="875.055" y2="13196" stroke="white" stroke-opacity="0.01"/>
<line x1="1357.57" y1="2.17428e-08" x2="1357.57" y2="13196" stroke="white" stroke-opacity="0.01"/>
<line x1="1870.24" y1="2.17428e-08" x2="1870.24" y2="13196" stroke="white" stroke-opacity="0.01"/>
<line x1="1558.62" y1="2.17428e-08" x2="1558.61" y2="13196" stroke="white" stroke-opacity="0.01"/>
<line x1="1226.89" y1="2.17428e-08" x2="1226.89" y2="13196" stroke="white" stroke-opacity="0.01"/>
<line x1="563.432" y1="7.27709e-08" x2="563.431" y2="13196" stroke="white" stroke-opacity="0.01"/>
<line x1="90.9727" y1="7.27709e-08" x2="90.9725" y2="13196" stroke="white" stroke-opacity="0.01"/>
<line x1="1538.51" y1="2.17428e-08" x2="1538.51" y2="13196" stroke="white" stroke-opacity="0.01"/>
<line x1="1045.94" y1="2.17428e-08" x2="1045.94" y2="13196" stroke="white" stroke-opacity="0.01"/>
<line x1="714.217" y1="7.27709e-08" x2="714.217" y2="13196" stroke="white" stroke-opacity="0.01"/>
<line x1="905.212" y1="7.2182e-08" x2="905.212" y2="13196" stroke="white" stroke-opacity="0.01"/>
<line x1="402.594" y1="7.27709e-08" x2="402.594" y2="13196" stroke="white" stroke-opacity="0.01"/>
<line x1="1377.67" y1="2.17428e-08" x2="1377.67" y2="13196" stroke="white" stroke-opacity="0.01"/>
<line x1="1709.4" y1="2.17428e-08" x2="1709.4" y2="13196" stroke="white" stroke-opacity="0.01"/>
<line x1="271.914" y1="7.27709e-08" x2="271.914" y2="13196" stroke="white" stroke-opacity="0.01"/>
<line x1="1236.94" y1="2.17428e-08" x2="1236.94" y2="13196" stroke="white" stroke-opacity="0.01"/>
<line x1="1890.34" y1="2.17428e-08" x2="1890.34" y2="13196" stroke="white" stroke-opacity="0.01"/>
<line x1="1578.72" y1="2.17428e-08" x2="1578.72" y2="13196" stroke="white" stroke-opacity="0.01"/>
<line x1="1056" y1="2.17428e-08" x2="1056" y2="13196" stroke="white" stroke-opacity="0.01"/>
<line x1="583.537" y1="7.27709e-08" x2="583.537" y2="13196" stroke="white" stroke-opacity="0.01"/>
<line x1="915.265" y1="7.27709e-08" x2="915.264" y2="13196" stroke="white" stroke-opacity="0.01"/>
<line x1="1387.72" y1="2.19183e-08" x2="1387.72" y2="13196" stroke="white" stroke-opacity="0.01"/>
<line x1="111.076" y1="7.27709e-08" x2="111.076" y2="13196" stroke="white" stroke-opacity="0.01"/>
<line x1="734.322" y1="7.27709e-08" x2="734.322" y2="13196" stroke="white" stroke-opacity="0.01"/>
<line x1="1246.99" y1="2.17428e-08" x2="1246.99" y2="13196" stroke="white" stroke-opacity="0.01"/>
<line x1="422.699" y1="7.27709e-08" x2="422.699" y2="13196" stroke="white" stroke-opacity="0.01"/>
<line x1="1066.05" y1="2.17428e-08" x2="1066.05" y2="13196" stroke="white" stroke-opacity="0.01"/>
<line x1="1729.51" y1="2.17428e-08" x2="1729.5" y2="13196" stroke="white" stroke-opacity="0.01"/>
<line x1="925.316" y1="7.27709e-08" x2="925.316" y2="13196" stroke="white" stroke-opacity="0.01"/>
<line x1="281.967" y1="7.2182e-08" x2="281.967" y2="13196" stroke="white" stroke-opacity="0.01"/>
<line x1="1588.77" y1="2.17428e-08" x2="1588.77" y2="13196" stroke="white" stroke-opacity="0.01"/>
<line x1="1397.78" y1="2.17428e-08" x2="1397.78" y2="13196" stroke="white" stroke-opacity="0.01"/>
<line x1="593.589" y1="7.2182e-08" x2="593.589" y2="13196" stroke="white" stroke-opacity="0.01"/>
<line x1="1257.04" y1="2.19183e-08" x2="1257.04" y2="13196" stroke="white" stroke-opacity="0.01"/>
<line x1="121.129" y1="7.27709e-08" x2="121.129" y2="13196" stroke="white" stroke-opacity="0.01"/>
<line x1="1076.1" y1="2.19183e-08" x2="1076.1" y2="13196" stroke="white" stroke-opacity="0.01"/>
<line x1="744.374" y1="7.27709e-08" x2="744.374" y2="13196" stroke="white" stroke-opacity="0.01"/>
<line x1="432.751" y1="7.27709e-08" x2="432.751" y2="13196" stroke="white" stroke-opacity="0.01"/>
<line x1="1739.56" y1="2.17428e-08" x2="1739.56" y2="13196" stroke="white" stroke-opacity="0.01"/>
<line x1="1086.15" y1="2.17428e-08" x2="1086.15" y2="13196" stroke="white" stroke-opacity="0.01"/>
<line x1="1407.83" y1="2.17428e-08" x2="1407.83" y2="13196" stroke="white" stroke-opacity="0.01"/>
<line x1="292.02" y1="7.27709e-08" x2="292.019" y2="13196" stroke="white" stroke-opacity="0.01"/>
<line x1="1598.82" y1="2.17428e-08" x2="1598.82" y2="13196" stroke="white" stroke-opacity="0.01"/>
<line x1="603.642" y1="7.27709e-08" x2="603.641" y2="13196" stroke="white" stroke-opacity="0.01"/>
<line x1="1096.21" y1="2.17428e-08" x2="1096.21" y2="13196" stroke="white" stroke-opacity="0.01"/>
<line x1="1417.88" y1="2.17428e-08" x2="1417.88" y2="13196" stroke="white" stroke-opacity="0.01"/>
<line x1="131.18" y1="7.2182e-08" x2="131.18" y2="13196" stroke="white" stroke-opacity="0.01"/>
<line x1="754.427" y1="7.2182e-08" x2="754.427" y2="13196" stroke="white" stroke-opacity="0.01"/>
<line x1="442.804" y1="2.17437e-08" x2="442.803" y2="13196" stroke="white" stroke-opacity="0.01"/>
<line x1="935.369" y1="7.2182e-08" x2="935.369" y2="13196" stroke="white" stroke-opacity="0.01"/>
<line x1="1749.61" y1="2.19183e-08" x2="1749.61" y2="13196" stroke="white" stroke-opacity="0.01"/>
<line x1="1427.93" y1="2.17428e-08" x2="1427.93" y2="13196" stroke="white" stroke-opacity="0.01"/>
<line x1="302.07" y1="7.27709e-08" x2="302.07" y2="13196" stroke="white" stroke-opacity="0.01"/>
<line x1="1608.88" y1="2.17428e-08" x2="1608.88" y2="13196" stroke="white" stroke-opacity="0.01"/>
<line x1="1106.26" y1="2.17428e-08" x2="1106.26" y2="13196" stroke="white" stroke-opacity="0.01"/>
<line x1="613.693" y1="7.27709e-08" x2="613.693" y2="13196" stroke="white" stroke-opacity="0.01"/>
<line x1="1267.1" y1="2.17428e-08" x2="1267.1" y2="13196" stroke="white" stroke-opacity="0.01"/>
<line x1="141.234" y1="7.27709e-08" x2="141.234" y2="13196" stroke="white" stroke-opacity="0.01"/>
<line x1="764.479" y1="7.27709e-08" x2="764.478" y2="13196" stroke="white" stroke-opacity="0.01"/>
<line x1="945.422" y1="7.27709e-08" x2="945.422" y2="13196" stroke="white" stroke-opacity="0.01"/>
<line x1="452.856" y1="7.27709e-08" x2="452.856" y2="13196" stroke="white" stroke-opacity="0.01"/>
<line x1="1437.99" y1="2.19183e-08" x2="1437.99" y2="13196" stroke="white" stroke-opacity="0.01"/>
<line x1="1759.66" y1="2.17428e-08" x2="1759.66" y2="13196" stroke="white" stroke-opacity="0.01"/>
<line x1="151.285" y1="7.2182e-08" x2="151.285" y2="13196" stroke="white" stroke-opacity="0.01"/>
<line x1="1116.31" y1="2.17428e-08" x2="1116.31" y2="13196" stroke="white" stroke-opacity="0.01"/>
<line x1="774.531" y1="7.2182e-08" x2="774.531" y2="13196" stroke="white" stroke-opacity="0.01"/>
<line x1="1277.15" y1="2.17428e-08" x2="1277.15" y2="13196" stroke="white" stroke-opacity="0.01"/>
<line x1="462.908" y1="7.2182e-08" x2="462.908" y2="13196" stroke="white" stroke-opacity="0.01"/>
<line x1="1769.71" y1="2.17428e-08" x2="1769.71" y2="13196" stroke="white" stroke-opacity="0.01"/>
<line x1="955.474" y1="7.2182e-08" x2="955.473" y2="13196" stroke="white" stroke-opacity="0.01"/>
<line x1="161.338" y1="2.17437e-08" x2="161.337" y2="13196" stroke="white" stroke-opacity="0.01"/>
<line x1="784.584" y1="7.27709e-08" x2="784.584" y2="13196" stroke="white" stroke-opacity="0.01"/>
<line x1="472.961" y1="7.27709e-08" x2="472.961" y2="13196" stroke="white" stroke-opacity="0.01"/>
<line x1="1448.04" y1="2.17428e-08" x2="1448.04" y2="13196" stroke="white" stroke-opacity="0.01"/>
<line x1="1196.73" y1="2.17428e-08" x2="1196.73" y2="13196" stroke="white" stroke-opacity="0.01"/>
<line x1="1136.42" y1="2.17428e-08" x2="1136.42" y2="13196" stroke="white" stroke-opacity="0.01"/>
<line x1="1779.77" y1="2.17428e-08" x2="1779.77" y2="13196" stroke="white" stroke-opacity="0.01"/>
<line x1="0.5" y1="7.25599e-08" x2="0.499826" y2="13196" stroke="white" stroke-opacity="0.01"/>
<line x1="623.746" y1="7.2182e-08" x2="623.746" y2="13196" stroke="white" stroke-opacity="0.01"/>
<line x1="1287.2" y1="2.17428e-08" x2="1287.2" y2="13196" stroke="white" stroke-opacity="0.01"/>
<line x1="975.578" y1="7.27709e-08" x2="975.578" y2="13196" stroke="white" stroke-opacity="0.01"/>
<line x1="312.123" y1="7.2182e-08" x2="312.123" y2="13196" stroke="white" stroke-opacity="0.01"/>
<line x1="1618.93" y1="2.19183e-08" x2="1618.93" y2="13196" stroke="white" stroke-opacity="0.01"/>
<line x1="1468.14" y1="2.17428e-08" x2="1468.14" y2="13196" stroke="white" stroke-opacity="0.01"/>
<line x1="171.391" y1="7.27709e-08" x2="171.39" y2="13196" stroke="white" stroke-opacity="0.01"/>
<line x1="1156.52" y1="2.17428e-08" x2="1156.52" y2="13196" stroke="white" stroke-opacity="0.01"/>
<line x1="794.636" y1="7.27709e-08" x2="794.636" y2="13196" stroke="white" stroke-opacity="0.01"/>
<line x1="1307.31" y1="2.19183e-08" x2="1307.31" y2="13196" stroke="white" stroke-opacity="0.01"/>
<line x1="483.013" y1="7.27709e-08" x2="483.013" y2="13196" stroke="white" stroke-opacity="0.01"/>
<line x1="1789.82" y1="2.17428e-08" x2="1789.82" y2="13196" stroke="white" stroke-opacity="0.01"/>
<line x1="995.684" y1="7.27709e-08" x2="995.683" y2="13196" stroke="white" stroke-opacity="0.01"/>
<line x1="1488.25" y1="2.19183e-08" x2="1488.25" y2="13196" stroke="white" stroke-opacity="0.01"/>
<line x1="10.5527" y1="7.27709e-08" x2="10.5526" y2="13196" stroke="white" stroke-opacity="0.01"/>
<line x1="633.799" y1="7.27709e-08" x2="633.799" y2="13196" stroke="white" stroke-opacity="0.01"/>
<line x1="322.176" y1="7.27709e-08" x2="322.176" y2="13196" stroke="white" stroke-opacity="0.01"/>
<line x1="1327.41" y1="2.17428e-08" x2="1327.41" y2="13196" stroke="white" stroke-opacity="0.01"/>
<line x1="1628.98" y1="2.17428e-08" x2="1628.98" y2="13196" stroke="white" stroke-opacity="0.01"/>
<line x1="1176.63" y1="2.17428e-08" x2="1176.62" y2="13196" stroke="white" stroke-opacity="0.01"/>
<line x1="181.443" y1="7.2182e-08" x2="181.443" y2="13196" stroke="white" stroke-opacity="0.01"/>
<line x1="804.688" y1="7.2182e-08" x2="804.688" y2="13196" stroke="white" stroke-opacity="0.01"/>
<line x1="1508.35" y1="2.17428e-08" x2="1508.35" y2="13196" stroke="white" stroke-opacity="0.01"/>
<line x1="1799.87" y1="2.19183e-08" x2="1799.87" y2="13196" stroke="white" stroke-opacity="0.01"/>
<line x1="1015.79" y1="7.2182e-08" x2="1015.79" y2="13196" stroke="white" stroke-opacity="0.01"/>
<line x1="493.065" y1="7.2182e-08" x2="493.065" y2="13196" stroke="white" stroke-opacity="0.01"/>
<line x1="1347.52" y1="2.17428e-08" x2="1347.52" y2="13196" stroke="white" stroke-opacity="0.01"/>
<line x1="885.107" y1="7.2182e-08" x2="885.107" y2="13196" stroke="white" stroke-opacity="0.01"/>
<line x1="1216.83" y1="2.17428e-08" x2="1216.83" y2="13196" stroke="white" stroke-opacity="0.01"/>
<line x1="1900.4" y1="2.17428e-08" x2="1900.39" y2="13196" stroke="white" stroke-opacity="0.01"/>
<line x1="1528.46" y1="2.17428e-08" x2="1528.46" y2="13196" stroke="white" stroke-opacity="0.01"/>
<line x1="1548.56" y1="2.17428e-08" x2="1548.56" y2="13196" stroke="white" stroke-opacity="0.01"/>
<line x1="20.6055" y1="7.2182e-08" x2="20.6053" y2="13196" stroke="white" stroke-opacity="0.01"/>
<line x1="643.851" y1="7.2182e-08" x2="643.85" y2="13196" stroke="white" stroke-opacity="0.01"/>
<line x1="1367.62" y1="2.17428e-08" x2="1367.62" y2="13196" stroke="white" stroke-opacity="0.01"/>
<line x1="1819.98" y1="2.17428e-08" x2="1819.98" y2="13196" stroke="white" stroke-opacity="0.01"/>
<line x1="332.229" y1="7.2182e-08" x2="332.228" y2="13196" stroke="white" stroke-opacity="0.01"/>
<line x1="1035.89" y1="2.17428e-08" x2="1035.89" y2="13196" stroke="white" stroke-opacity="0.01"/>
<line x1="1639.03" y1="2.17428e-08" x2="1639.03" y2="13196" stroke="white" stroke-opacity="0.01"/>
<line x1="201.547" y1="7.2182e-08" x2="201.547" y2="13196" stroke="white" stroke-opacity="0.01"/>
<line x1="824.793" y1="7.2182e-08" x2="824.793" y2="13196" stroke="white" stroke-opacity="0.01"/>
<line x1="513.17" y1="7.2182e-08" x2="513.17" y2="13196" stroke="white" stroke-opacity="0.01"/>
<line x1="1920.5" y1="2.17428e-08" x2="1920.5" y2="13196" stroke="white" stroke-opacity="0.01"/>
<line x1="1840.08" y1="2.17428e-08" x2="1840.08" y2="13196" stroke="white" stroke-opacity="0.01"/>
<line x1="40.709" y1="7.27709e-08" x2="40.7088" y2="13196" stroke="white" stroke-opacity="0.01"/>
<line x1="663.955" y1="7.27709e-08" x2="663.955" y2="13196" stroke="white" stroke-opacity="0.01"/>
<line x1="352.332" y1="7.27709e-08" x2="352.332" y2="13196" stroke="white" stroke-opacity="0.01"/>
<line x1="1659.14" y1="2.17428e-08" x2="1659.14" y2="13196" stroke="white" stroke-opacity="0.01"/>
<line x1="221.652" y1="7.27709e-08" x2="221.652" y2="13196" stroke="white" stroke-opacity="0.01"/>
<line x1="844.897" y1="7.27709e-08" x2="844.897" y2="13196" stroke="white" stroke-opacity="0.01"/>
<line x1="533.274" y1="7.27709e-08" x2="533.274" y2="13196" stroke="white" stroke-opacity="0.01"/>
<line x1="1860.19" y1="2.17428e-08" x2="1860.19" y2="13196" stroke="white" stroke-opacity="0.01"/>
<line x1="60.8145" y1="7.27709e-08" x2="60.8143" y2="13196" stroke="white" stroke-opacity="0.01"/>
<line x1="684.061" y1="7.27709e-08" x2="684.06" y2="13196" stroke="white" stroke-opacity="0.01"/>
<line x1="372.438" y1="7.27709e-08" x2="372.437" y2="13196" stroke="white" stroke-opacity="0.01"/>
<line x1="1679.24" y1="2.17428e-08" x2="1679.24" y2="13196" stroke="white" stroke-opacity="0.01"/>
<line x1="241.758" y1="7.27709e-08" x2="241.758" y2="13196" stroke="white" stroke-opacity="0.01"/>
<line x1="865.003" y1="7.27709e-08" x2="865.003" y2="13196" stroke="white" stroke-opacity="0.01"/>
<line x1="1880.29" y1="2.17428e-08" x2="1880.29" y2="13196" stroke="white" stroke-opacity="0.01"/>
<line x1="553.38" y1="7.27709e-08" x2="553.38" y2="13196" stroke="white" stroke-opacity="0.01"/>
<line x1="80.918" y1="7.2182e-08" x2="80.9178" y2="13196" stroke="white" stroke-opacity="0.01"/>
<line x1="704.165" y1="7.2182e-08" x2="704.165" y2="13196" stroke="white" stroke-opacity="0.01"/>
<line x1="392.541" y1="7.2182e-08" x2="392.541" y2="13196" stroke="white" stroke-opacity="0.01"/>
<line x1="1699.35" y1="2.17428e-08" x2="1699.35" y2="13196" stroke="white" stroke-opacity="0.01"/>
<line x1="261.861" y1="2.17437e-08" x2="261.861" y2="13196" stroke="white" stroke-opacity="0.01"/>
<line x1="1568.67" y1="2.19183e-08" x2="1568.67" y2="13196" stroke="white" stroke-opacity="0.01"/>
<line x1="573.484" y1="7.2182e-08" x2="573.484" y2="13196" stroke="white" stroke-opacity="0.01"/>
<line x1="101.023" y1="7.2182e-08" x2="101.023" y2="13196" stroke="white" stroke-opacity="0.01"/>
<line x1="724.27" y1="7.2182e-08" x2="724.269" y2="13196" stroke="white" stroke-opacity="0.01"/>
<line x1="412.646" y1="7.2182e-08" x2="412.646" y2="13196" stroke="white" stroke-opacity="0.01"/>
<line x1="1719.45" y1="2.17428e-08" x2="1719.45" y2="13196" stroke="white" stroke-opacity="0.01"/>
</svg>
