<svg width="102" height="39" viewBox="0 0 102 39" fill="none" xmlns="http://www.w3.org/2000/svg">
<path d="M98.0788 38.168C97.5044 38.168 96.9902 38.0359 96.5364 37.7716C96.0883 37.5074 95.7379 37.1397 95.4851 36.6686C95.2323 36.1918 95.106 35.6518 95.106 35.0486C95.106 34.4454 95.2295 33.9083 95.4765 33.4372C95.7293 32.9604 96.0797 32.5899 96.5278 32.3257C96.9759 32.0614 97.4843 31.9293 98.053 31.9293C98.6274 31.9293 99.1359 32.0614 99.5782 32.3257C100.026 32.5899 100.374 32.9604 100.621 33.4372C100.874 33.9083 101 34.4454 101 35.0486C101 35.6518 100.876 36.1918 100.629 36.6686C100.382 37.1397 100.035 37.5074 99.5868 37.7716C99.1445 38.0359 98.6418 38.168 98.0788 38.168ZM95.8384 35.0486C95.8384 35.5197 95.9332 35.9419 96.1228 36.3153C96.3123 36.6887 96.5766 36.9817 96.9155 37.1943C97.2602 37.4011 97.648 37.5045 98.0788 37.5045C98.5039 37.5045 98.8802 37.4011 99.2077 37.1943C99.5409 36.9817 99.7994 36.6916 99.9832 36.324C100.173 35.9505 100.268 35.5254 100.268 35.0486C100.268 34.5718 100.173 34.1496 99.9832 33.7819C99.7994 33.4085 99.538 33.1184 99.199 32.9116C98.8659 32.6991 98.4838 32.5928 98.053 32.5928C97.6279 32.5928 97.2459 32.6991 96.9069 32.9116C96.5737 33.1184 96.3123 33.4085 96.1228 33.7819C95.9332 34.1553 95.8384 34.5776 95.8384 35.0486Z" fill="white"/>
<path d="M93.1716 32.0327H93.904V38.0646H93.1716V32.0327Z" fill="white"/>
<path d="M87.239 32.0327H89.0831C89.6345 32.0327 90.1286 32.162 90.5652 32.4205C91.0075 32.6733 91.3522 33.0294 91.5992 33.489C91.8462 33.9428 91.9698 34.4627 91.9698 35.0487C91.9698 35.6289 91.8462 36.1488 91.5992 36.6084C91.3522 37.0679 91.0075 37.427 90.5652 37.6855C90.1286 37.9383 89.6345 38.0646 89.0831 38.0646H87.239V32.0327ZM89.0831 37.3925C89.4737 37.3925 89.8327 37.2891 90.1602 37.0823C90.4934 36.8697 90.7548 36.5854 90.9443 36.2292C91.1397 35.8673 91.2373 35.4738 91.2373 35.0487C91.2373 34.6236 91.1397 34.2301 90.9443 33.8681C90.7548 33.5062 90.4934 33.2219 90.1602 33.0151C89.8327 32.8025 89.4737 32.6962 89.0831 32.6962H87.9715V37.3925H89.0831Z" fill="white"/>
<path d="M83.3613 38.1939C82.9132 38.1939 82.5139 38.0991 82.1635 37.9095C81.8131 37.72 81.5402 37.4528 81.3449 37.1081C81.1496 36.7635 81.0519 36.3671 81.0519 35.919V32.0327H81.7844V35.919C81.7844 36.2292 81.8504 36.5078 81.9826 36.7548C82.1204 36.9961 82.31 37.1857 82.5513 37.3236C82.7925 37.4614 83.0683 37.5304 83.3785 37.5304C83.6945 37.5304 83.9731 37.4614 84.2144 37.3236C84.4614 37.1857 84.651 36.9961 84.7831 36.7548C84.921 36.5078 84.9899 36.2292 84.9899 35.919V32.0327H85.7137V35.919C85.7137 36.3671 85.6132 36.7635 85.4121 37.1081C85.2168 37.4528 84.9411 37.72 84.5849 37.9095C84.2287 38.0991 83.8208 38.1939 83.3613 38.1939Z" fill="white"/>
<path d="M77.5985 32.6962H75.6769V32.0327H80.244V32.6962H78.3224V38.0646H77.5985V32.6962Z" fill="white"/>
<path d="M73.0207 38.168C72.4003 38.168 71.8919 38.0387 71.4955 37.7802C71.1048 37.5217 70.8492 37.2029 70.7286 36.8237L71.4265 36.5825C71.5242 36.8525 71.7051 37.0765 71.9694 37.2546C72.2337 37.4327 72.5467 37.5217 72.9087 37.5217C73.3682 37.5217 73.7302 37.4298 73.9944 37.246C74.2644 37.0621 74.3994 36.818 74.3994 36.5135C74.3994 35.9965 73.9714 35.6317 73.1155 35.4192L72.452 35.2468C71.9981 35.1319 71.6362 34.9452 71.3662 34.6867C71.0962 34.4282 70.9612 34.0893 70.9612 33.6699C70.9612 33.1184 71.1393 32.6904 71.4955 32.386C71.8516 32.0815 72.3629 31.9293 73.0293 31.9293C73.575 31.9293 74.0289 32.0585 74.3908 32.317C74.7585 32.5698 75.0055 32.88 75.1319 33.2477L74.4425 33.4889C74.3333 33.2075 74.1495 32.9863 73.891 32.8254C73.6325 32.6588 73.3194 32.5755 72.9517 32.5755C72.5668 32.5755 72.2595 32.6703 72.0297 32.8599C71.8057 33.0437 71.6937 33.2936 71.6937 33.6096C71.6937 33.8738 71.777 34.0835 71.9436 34.2386C72.1101 34.388 72.3486 34.5 72.6588 34.5747L73.3223 34.7384C73.891 34.8763 74.3362 35.1032 74.6579 35.4192C74.9796 35.7294 75.1405 36.0741 75.1405 36.4532C75.1405 36.7807 75.06 37.0736 74.8992 37.3321C74.7383 37.5907 74.4971 37.7946 74.1754 37.944C73.8594 38.0933 73.4745 38.168 73.0207 38.168Z" fill="white"/>
<path d="M65.2 35.5398L63.0371 32.0327H63.8816L65.5705 34.8074L67.2509 32.0327H68.0867L65.9238 35.5398V38.0646H65.2V35.5398Z" fill="white"/>
<path d="M60.0926 38.168C59.5239 38.168 59.0155 38.0359 58.5674 37.7716C58.1193 37.5074 57.7689 37.1397 57.5161 36.6686C57.2691 36.1918 57.1456 35.6518 57.1456 35.0486C57.1456 34.4454 57.2691 33.9083 57.5161 33.4372C57.7632 32.9604 58.1078 32.5899 58.5502 32.3257C58.9983 32.0614 59.5067 31.9293 60.0754 31.9293C60.6154 31.9293 61.1181 32.0729 61.5834 32.3601C62.0544 32.6416 62.3991 33.0121 62.6174 33.4717L61.9884 33.7819C61.8103 33.4315 61.5432 33.1471 61.187 32.9288C60.8366 32.7048 60.466 32.5928 60.0754 32.5928C59.6503 32.5928 59.2711 32.6991 58.938 32.9116C58.6048 33.1184 58.3434 33.4085 58.1538 33.7819C57.97 34.1553 57.8781 34.5776 57.8781 35.0486C57.8781 35.5254 57.9728 35.9534 58.1624 36.3326C58.352 36.706 58.6134 36.999 58.9466 37.2115C59.2855 37.4183 59.6704 37.5217 60.1013 37.5217C60.4976 37.5217 60.871 37.4011 61.2215 37.1598C61.5776 36.9185 61.8419 36.6054 62.0142 36.2205L62.6519 36.5394C62.4279 37.0219 62.0774 37.4154 61.6006 37.7199C61.1296 38.0186 60.6269 38.168 60.0926 38.168Z" fill="white"/>
<path d="M50.8775 32.0327H51.6186L55.2119 36.8755V32.0327H55.9443V38.0646H55.2119L51.6099 33.196V38.0646H50.8775V32.0327Z" fill="white"/>
<path d="M45.778 32.0327H49.3454V32.6962H46.5104V34.6437H49.0956V35.2986H46.5104V37.4011H49.3627V38.0646H45.778V32.0327Z" fill="white"/>
<path d="M41.9627 38.168C41.3537 38.168 40.8109 38.0359 40.334 37.7716C39.863 37.5074 39.4924 37.1397 39.2224 36.6686C38.9582 36.1918 38.8261 35.6547 38.8261 35.0572C38.8261 34.4541 38.9582 33.9169 39.2224 33.4459C39.4924 32.9691 39.863 32.5985 40.334 32.3343C40.8109 32.0643 41.3537 31.9293 41.9627 31.9293C42.4395 31.9293 42.8962 32.0442 43.3328 32.2739C43.7694 32.498 44.1083 32.791 44.3496 33.1529L43.7722 33.5493C43.5942 33.2678 43.3356 33.038 42.9967 32.8599C42.6578 32.6818 42.3131 32.5928 41.9627 32.5928C41.4973 32.5928 41.0809 32.6991 40.7132 32.9116C40.3513 33.1184 40.0669 33.4085 39.8601 33.7819C39.659 34.1553 39.5585 34.5804 39.5585 35.0572C39.5585 35.5283 39.659 35.9505 39.8601 36.324C40.0669 36.6974 40.3542 36.9903 40.7218 37.2029C41.0895 37.4097 41.506 37.5131 41.9713 37.5131C42.3504 37.5131 42.6922 37.4327 42.9967 37.2718C43.3012 37.111 43.5396 36.8869 43.7119 36.5997C43.89 36.3067 43.9791 35.9764 43.9791 35.6087H42.4883V34.9883H44.677V35.557C44.677 36.0683 44.5593 36.5221 44.3237 36.9185C44.0939 37.3149 43.7722 37.6223 43.3586 37.8405C42.9508 38.0588 42.4854 38.168 41.9627 38.168Z" fill="white"/>
<path d="M37.1943 36.5567H34.2732L33.67 38.0646H32.903L35.3503 32.0327H36.1086L38.5644 38.0646H37.7975L37.1943 36.5567ZM36.9358 35.9104L35.738 32.9203L34.5317 35.9104H36.9358Z" fill="white"/>
<path d="M27.0123 32.0327H27.7448V37.4011H30.5884V38.0646H27.0123V32.0327Z" fill="white"/>
<path d="M24.7568 36.5567H21.8356L21.2324 38.0646H20.4655L22.9127 32.0327H23.671L26.1269 38.0646H25.36L24.7568 36.5567ZM24.4983 35.9104L23.3005 32.9203L22.0941 35.9104H24.4983Z" fill="white"/>
<path d="M18.2303 32.6962H16.3087V32.0327H20.8757V32.6962H18.9541V38.0646H18.2303V32.6962Z" fill="white"/>
<path d="M14.6759 32.0327H15.4084V38.0646H14.6759V32.0327Z" fill="white"/>
<path d="M11.0037 38.168C10.3947 38.168 9.85185 38.0359 9.37504 37.7716C8.90397 37.5074 8.53344 37.1397 8.26344 36.6686C7.99919 36.1918 7.86706 35.6547 7.86706 35.0572C7.86706 34.4541 7.99919 33.9169 8.26344 33.4459C8.53344 32.9691 8.90397 32.5985 9.37504 32.3343C9.85185 32.0643 10.3947 31.9293 11.0037 31.9293C11.4805 31.9293 11.9372 32.0442 12.3738 32.2739C12.8104 32.498 13.1493 32.791 13.3906 33.1529L12.8132 33.5493C12.6351 33.2678 12.3766 33.038 12.0377 32.8599C11.6988 32.6818 11.3541 32.5928 11.0037 32.5928C10.5383 32.5928 10.1218 32.6991 9.75419 32.9116C9.39227 33.1184 9.10791 33.4085 8.9011 33.7819C8.70004 34.1553 8.59951 34.5804 8.59951 35.0572C8.59951 35.5283 8.70004 35.9505 8.9011 36.324C9.10791 36.6974 9.39514 36.9903 9.7628 37.2029C10.1305 37.4097 10.547 37.5131 11.0123 37.5131C11.3914 37.5131 11.7332 37.4327 12.0377 37.2718C12.3422 37.111 12.5806 36.8869 12.7529 36.5997C12.931 36.3067 13.02 35.9764 13.02 35.6087H11.5293V34.9883H13.718V35.557C13.718 36.0683 13.6003 36.5221 13.3647 36.9185C13.1349 37.3149 12.8132 37.6223 12.3996 37.8405C11.9917 38.0588 11.5264 38.168 11.0037 38.168Z" fill="white"/>
<path d="M5.93267 32.0327H6.66511V38.0646H5.93267V32.0327Z" fill="white"/>
<path d="M0 32.0327H1.84404C2.39553 32.0327 2.88958 32.162 3.32617 32.4205C3.76851 32.6733 4.11319 33.0294 4.36022 33.489C4.60724 33.9428 4.73075 34.4627 4.73075 35.0487C4.73075 35.6289 4.60724 36.1488 4.36022 36.6084C4.11319 37.0679 3.76851 37.427 3.32617 37.6855C2.88958 37.9383 2.39553 38.0646 1.84404 38.0646H0V32.0327ZM1.84404 37.3925C2.23468 37.3925 2.59373 37.2891 2.92117 37.0823C3.25436 36.8697 3.51575 36.5854 3.70532 36.2292C3.90064 35.8673 3.9983 35.4738 3.9983 35.0487C3.9983 34.6236 3.90064 34.2301 3.70532 33.8681C3.51575 33.5062 3.25436 33.2219 2.92117 33.0151C2.59373 32.8025 2.23468 32.6962 1.84404 32.6962H0.732447V37.3925H1.84404Z" fill="white"/>
<path d="M82.9149 26.586L89.4756 17.1264L82.9149 7.78126H87.721L92.1074 14.4564L96.4939 7.78126H101.3L94.7012 17.1264L101.3 26.586H96.4939L92.1074 19.8346L87.721 26.586H82.9149Z" fill="white"/>
<path d="M75.4832 4.11949V0H79.6789V4.11949H75.4832ZM75.6357 26.586V7.78126H79.5645V26.586H75.6357Z" fill="white"/>
<path d="M69.2944 7.43797C70.515 7.43797 71.6212 7.70497 72.7655 8.39156L70.8583 11.8245C70.1336 11.4049 69.4088 11.176 68.5315 11.176C65.7089 11.176 64.0688 13.0451 64.0688 16.7831V26.586H60.14V7.78126H64.1069V10.8709C65.0605 8.50599 67.2347 7.43797 69.2944 7.43797Z" fill="white"/>
<path d="M56.0735 23.1912L56.1117 26.3953C55.0055 26.7385 53.8994 26.9293 52.8695 26.9293C49.8943 26.9293 47.5294 25.3654 47.5294 21.5892V10.9472H44.4398V7.78126H47.5294V3.73806L51.4582 0.801012V7.78126H56.0735V10.9472H51.4582V21.2459C51.4582 22.8479 52.3355 23.6108 53.8231 23.6108C54.4715 23.6108 55.2344 23.4582 56.0735 23.1912Z" fill="white"/>
<path d="M33.6711 7.43797C38.5535 7.43797 41.5287 10.1843 41.5287 14.7615V26.586H37.9432L37.638 23.9159C36.4174 25.8231 34.2433 26.9293 31.5732 26.9293C27.5682 26.9293 24.8981 24.5262 24.8981 20.9407C24.8981 18.8047 25.8136 17.2027 27.4919 16.3635C28.7888 15.7151 30.5434 15.4099 33.2134 15.4099H37.5999V14.7615C37.5999 12.3203 36.1123 10.8709 33.633 10.8709C31.5732 10.8709 29.7423 11.8626 28.331 13.8079L25.4703 11.4049C27.6445 8.73485 30.3145 7.43797 33.6711 7.43797ZM32.298 23.6108C35.3494 23.6108 37.5999 21.4748 37.5999 18.4996V18.4233H33.6711C31.4969 18.4233 30.3908 18.614 29.6661 19.1861C29.0939 19.5676 28.8269 20.216 28.8269 21.017C28.8269 22.6191 30.1619 23.6108 32.298 23.6108Z" fill="white"/>
<path d="M16.0584 0H20.1397V26.586H15.8677L4.08135 7.01839V26.586H0V0H4.23392L16.0584 19.4531V0Z" fill="white"/>
</svg>
