<svg width="19" height="19" viewBox="0 0 19 19" fill="none" xmlns="http://www.w3.org/2000/svg">
<path d="M18.1019 13.8121L13.248 18.6623C12.7953 19.1076 12.0679 19.1039 11.6226 18.6549C11.1773 18.2059 11.1773 17.4859 11.6226 17.0369L14.5134 14.1461H1.71069C1.07612 14.1461 0.560303 13.6303 0.560303 12.9957V1.15039C0.560303 0.51582 1.07612 0 1.71069 0C2.34526 0 2.86108 0.51582 2.86108 1.15039V11.8453H14.5097L11.6189 8.95449C11.1587 8.5166 11.1439 7.78555 11.5818 7.3291C12.0197 6.86895 12.7507 6.8541 13.2072 7.29199C13.2183 7.30312 13.2332 7.31426 13.2443 7.3291L18.0982 12.183C18.5509 12.632 18.5509 13.3631 18.1019 13.8121Z" fill="#999999"/>
</svg>
