<svg width="67" height="20" viewBox="0 0 67 20" fill="none" xmlns="http://www.w3.org/2000/svg">
<path d="M49.412 16.4968C50.625 16.4968 51.6084 15.5131 51.6084 14.2995C51.6084 13.0859 50.625 12.1021 49.412 12.1021C48.1989 12.1021 47.2155 13.0859 47.2155 14.2995C47.2155 15.5131 48.1989 16.4968 49.412 16.4968Z" fill="#E62415"/>
<path d="M17.4395 0.130859H20.3461V18.883H17.4395V0.130859ZM30.932 13.1004C30.932 16.0082 28.5539 16.2396 27.8272 16.2396C26.0106 16.2396 25.7464 14.5378 25.7464 13.5135V6.26042H22.8233V13.4969C22.8067 15.2978 23.3187 16.7848 24.3096 17.7761C25.2095 18.5786 26.356 19.0503 27.5598 19.1134C28.7638 19.1765 29.9532 18.8271 30.932 18.123V18.883H33.8551V6.26042H30.932V13.1004ZM40.1637 2.01434H37.2406V6.26042H35.2093V9.01958H37.2406V18.883H40.1637V9.01958H42.5583V6.26042H40.1637V2.01434ZM52.0212 15.2978C51.3607 15.8926 50.4854 16.223 49.5275 16.223C49.0409 16.2368 48.5566 16.1508 48.1045 15.9703C47.6523 15.7899 47.2419 15.5187 46.8985 15.1735C46.555 14.8284 46.2858 14.4166 46.1074 13.9635C45.929 13.5103 45.8453 13.0255 45.8612 12.5387C45.8612 10.4074 47.3641 8.92043 49.5275 8.92043C50.4688 8.92043 51.3607 9.23436 52.0377 9.82915L52.5001 10.2256L54.548 8.17694L54.036 7.71434C52.7958 6.60776 51.1892 6.00132 49.5275 6.01259C45.7291 6.01259 42.9711 8.75521 42.9711 12.5221C42.951 13.3906 43.1065 14.2542 43.4285 15.0609C43.7504 15.8676 44.232 16.6009 44.8445 17.2167C45.4568 17.8325 46.1874 18.318 46.9922 18.6441C47.7969 18.9702 48.6594 19.1302 49.5275 19.1144C51.2615 19.1144 52.8799 18.503 54.069 17.3961L54.5645 16.9335L52.4836 14.8848L52.0212 15.2978ZM65.5137 7.36738C64.6138 6.56485 63.4673 6.09314 62.2634 6.03007C61.0595 5.96699 59.8701 6.31632 58.8913 7.02042V0.130859H55.9682V18.883H58.8913V12.0596C58.8913 9.15171 61.2694 8.92043 61.996 8.92043C63.8127 8.92043 64.0769 10.6221 64.0769 11.6465V18.8996H67V11.6465C67.0882 10.0799 66.5539 8.54177 65.5137 7.36738ZM13.1292 14.3892C12.5604 14.9736 11.8798 15.4372 11.1278 15.7523C10.3758 16.0675 9.56803 16.2276 8.75278 16.223C5.36727 16.223 2.90658 13.563 2.90658 9.91171C2.90658 6.2439 5.36727 3.5839 8.75278 3.5839C10.3877 3.5839 11.9401 4.22825 13.1127 5.4013L13.5751 5.8639L15.6064 3.83173L15.1605 3.36912C14.3225 2.51649 13.3223 1.84039 12.219 1.38071C11.1156 0.921012 9.93146 0.687044 8.73628 0.692599C3.76534 0.692599 0 4.65782 0 9.92821C0 15.1656 3.76534 19.1309 8.73628 19.1309C11.1969 19.1309 13.4759 18.1726 15.1605 16.4378L15.6064 15.9752L13.5916 13.91L13.1292 14.3892Z" fill="white"/>
</svg>
